<?xml version="1.0" encoding="utf-8"?>
<!-- Generator: Adobe Illustrator 16.0.0, SVG Export Plug-In . SVG Version: 6.00 Build 0)  -->
<!DOCTYPE svg PUBLIC "-//W3C//DTD SVG 1.1//EN" "http://www.w3.org/Graphics/SVG/1.1/DTD/svg11.dtd">
<svg version="1.1"
	 id="Layer_1" xmlns:dc="http://purl.org/dc/elements/1.1/" xmlns:inkscape="http://www.inkscape.org/namespaces/inkscape" xmlns:cc="http://creativecommons.org/ns#" xmlns:sodipodi="http://sodipodi.sourceforge.net/DTD/sodipodi-0.dtd" xmlns:svg="http://www.w3.org/2000/svg" xmlns:rdf="http://www.w3.org/1999/02/22-rdf-syntax-ns#"
	 xmlns="http://www.w3.org/2000/svg" xmlns:xlink="http://www.w3.org/1999/xlink" x="0px" y="0px" width="512px" height="512px"
	 viewBox="0 0 512 512" enable-background="new 0 0 512 512" xml:space="preserve">
<g id="g3021">
</g>
<path id="rect2989" fill="#379AD6" d="M512,512c0,0-487.59,0-512,0V0h512V512z"/>
<polygon fill="#2F82B5" points="238.612,511.997 145.794,416.339 162.678,183.07 238.143,181.267 175.51,116.716 189.5,80.75 
	217.378,66 254.892,104.663 254.893,73.167 277.143,66 319.48,109.634 318.203,83.836 336.49,66 512,246.882 512,512 "/>
<g id="g3015" transform="matrix(1.2330496,0,0,1.2330496,-59.66069,-59.660695)">
	<polygon id="polygon3962" fill="#FFFFFF" points="146,162.589 166.624,386.023 255.999,410.089 345.373,386.023 365.999,162.589 	
		"/>
	<polygon id="polygon3968" fill="#FFFFFF" points="255.998,180.686 255.998,390.896 256.2,390.95 328.527,371.474 345.221,180.686 	
		"/>
	<path id="path4016" fill="#FFFFFF" d="M190.723,143.041h33.955v-13.28h-19.402v-13.299h19.402V101.91h-33.955V143.041z
		 M239.189,116.463c4.543,4.543,6.912,6.717,13.483,13.288c-3.84,0-13.483,0.014-13.483,0.013v13.277h33.958v-13.28l-13.564-13.299
		h13.564V101.91h-33.958C239.189,101.91,239.189,109.214,239.189,116.463z M321.277,101.91h-33.96c0,0,0,7.304,0,14.553
		c4.543,4.543,6.913,6.717,13.484,13.288c-3.838,0-13.484,0.014-13.484,0.013v13.277h33.96v-13.28l-13.564-13.299h13.564V101.91z"/>
	<path id="path4169" fill="#2F82B5" d="M186.102,207.694l4,27.25l69.5-0.5l-67,28.25l1.75,27h95l-2.251,35.5l-30.5,9.25l-31-8.5
		l-1.75-21.25h-27.25l3.5,41.75l55.75,16.25l56.75-15.75l7-84.249h-64.25l66.75-28.25l2-27L186.102,207.694z"/>
</g>
<g id="Layer_1_1_">
</g>
<path fill="#2F82B5" d="M241.982,91.358"/>
</svg>
