<?xml version="1.0" encoding="utf-8"?>
<!-- Generator: Adobe Illustrator 16.0.0, SVG Export Plug-In . SVG Version: 6.00 Build 0)  -->
<!DOCTYPE svg PUBLIC "-//W3C//DTD SVG 1.1//EN" "http://www.w3.org/Graphics/SVG/1.1/DTD/svg11.dtd">
<svg version="1.1" id="Layer_1" xmlns="http://www.w3.org/2000/svg" xmlns:xlink="http://www.w3.org/1999/xlink" x="0px" y="0px"
	 width="512px" height="512px" viewBox="0 0 512 512" enable-background="new 0 0 512 512" xml:space="preserve">
<path fill="#F16529" d="M512,512H0V0h512V512z"/>
<polygon fill="#FFFFFF" points="-274.02,877.279 -274.013,877.279 -274.02,877.271 "/>
<path fill="#E44D26" d="M332.831,85.987L321.33,97.486L309.844,86l-17.865,17.865L274.113,86l-11.406,11.405l-11.389-11.39
	l-24.531,24.531l-24.531-24.531L187.56,100.71L172.849,86L161.14,97.708l15.292,15.293l-18.97,18.969l50.867,50.867l18.969-18.97
	l14.417,14.417l6.941-6.941l9.533,9.533l11.403-11.405l11.392,11.39l18.502-18.503l33.49,33.489l-82.457,82.456l13.553,13.553
	L157.306,398.623L270.682,512H432c14.967,0,62.803-0.457,80,0c0-19.986,0-199.25,0-199.25v-25.299v-22.295L332.831,85.987z"/>
<polygon fill="#FFFFFF" points="135.317,152.138 157.294,398.619 255.94,426 354.668,398.63 376.684,152.138 "/>
<polygon fill="#FFFFFF" points="172.827,116.572 186.877,116.572 186.877,131.97 202.254,131.97 202.254,86 186.877,86 
	186.877,101.188 172.827,101.188 172.827,86 157.462,86 157.462,131.97 172.827,131.97 "/>
<polygon fill="#FFFFFF" points="222.448,131.97 237.819,131.97 237.819,101.249 251.334,101.249 251.334,86 208.934,86 
	208.934,101.249 222.448,101.249 "/>
<polygon fill="#FFFFFF" points="273.105,109.195 283.688,125.528 283.943,125.528 294.514,109.195 294.514,131.97 309.823,131.97 
	309.823,86 293.793,86 283.943,102.177 274.096,86 258.081,86 258.081,131.97 273.105,131.97 "/>
<polygon fill="#FFFFFF" points="354.438,116.782 332.829,116.782 332.829,86 317.463,86 317.463,131.97 354.438,131.97 "/>
<polygon fill="#E44D26" points="329.009,232.743 256.001,232.743 213.323,232.743 216.081,263.702 256.001,263.702 326.264,263.702 
	317.973,356.543 256.001,373.709 255.953,373.723 194.022,356.543 189.702,307.984 220.043,307.984 222.292,333.174 255.96,342.271 
	256.009,342.258 256.009,342.258 289.709,333.16 293.22,293.949 256.009,293.949 256.009,293.949 188.448,293.949 180.285,202.532 
	256.001,202.532 331.703,202.532 "/>
</svg>
