<?xml version="1.0" encoding="utf-8"?>
<!-- Generator: Adobe Illustrator 16.0.0, SVG Export Plug-In . SVG Version: 6.00 Build 0)  -->
<!DOCTYPE svg PUBLIC "-//W3C//DTD SVG 1.1//EN" "http://www.w3.org/Graphics/SVG/1.1/DTD/svg11.dtd">
<svg version="1.1" id="Layer_1" xmlns="http://www.w3.org/2000/svg" xmlns:xlink="http://www.w3.org/1999/xlink" x="0px" y="0px"
	 width="512px" height="512px" viewBox="0 0 512 512" enable-background="new 0 0 512 512" xml:space="preserve">
<polyline fill="#647891" points="0,512 512,512 512,0 0,0 0,512 "/>
<polygon opacity="0.102" fill="#010101" enable-background="new    " points="512,512 512,362.416 395.686,189 103.428,364.046 
	202.667,512.002 "/>
<path fill="#647891" d="M161.963,398.415c-0.054-0.541-0.163-1.297-0.271-2.483c-0.109-0.592-0.163-1.133-0.217-1.674l-2.322,0.217
	h-0.593c-5.991,0.271-12.956-0.217-19.65-1.347c-6.639-1.136-13.062-2.917-18.028-5.184c-10.203-4.748-18.785-11.497-22.726-16.841
	c-2.375-3.347-3.832-6.856-4.049-10.419c-0.486-6.964,2.429-12.307,9.175-15.547c3.887-1.888,9.233-2.375,16.087-0.973
	c8.799,1.836,14.359,3.024,17.868,3.887c-15.709-26.068-27.261-54.087-34.115-78.915c-9.501-34.332-9.607-64.183,0.648-77.299
	c15.544-19.81,34.762-29.743,53.547-34.223c27.421-6.531,54.733-0.539,66.393,2.807c3.239-0.595,6.585-1.079,10.041-1.459
	c4.858-0.485,9.663-0.808,14.521-0.865c9.553-0.163,18.192,1.083,25.962,3.4c5.884,1.728,11.175,4.105,15.978,6.967
	c28.554-9.718,133.327-37.57,127.499,78.916c-0.702,13.928-11.604,70.441-28.122,109.63c-5.722,13.548-12.198,25.317-19.431,33.307
	c-9.986,11.12-21.487,16.028-34.547,11.333c-3.51-1.241-6.965-3.187-10.312-5.938c-0.539,0.649-1.185,1.35-1.833,1.944
	c-3.942,3.724-10.312,6.643-15.331,7.882c-5.99,1.51-15.976,3.292-27.095,1.401c-4.156-0.699-8.421-1.89-12.633-3.776
	c0.159,1.778,0.269,3.722,0.218,5.772c-0.109,2.913-0.163,5.827-0.271,7.881c-0.271,7.07-0.647,14.089-1.404,20.889
	c-0.809,7.125-1.997,13.44-3.832,18.461c-0.27,0.702-0.482,1.349-0.756,2.104c-4.264,13.172-11.929,36.6-48.311,28.823
	c-14.144-3.022-26.722-6.854-36.814-21.317C168.44,453.311,162.826,433.282,161.963,398.415L161.963,398.415z"/>
<path fill="#FFFFFF" d="M176.539,373.745c0.917-17.704-7.827-20.89-13.927-22.618c0.648-0.916,1.511-1.997,2.482-3.238
	c3.13-3.832,7.071-8.8,10.254-16.519c0.487-1.188,1.945-3.779,3.833-7.178c8.042-14.413,23.912-42.858,20.781-62.348
	c-2.213-13.873-12.793-23.047-39.188-20.296c0.052-0.269,0.162-0.539,0.269-0.81c1.242-3.562,3.239-8.259,6.154-13.493
	c11.551-20.999,36.65-50.311,81.345-51.013c53.925-0.915,63.751,52.741,65.531,75.299c-2.431-1.51-5.236-2.969-8.208-4.21
	c-4.534-1.833-9.662-3.4-14.791-4.21c-5.34-0.81-10.741-0.703-15.598,0.81c-7.61,2.375-13.658,8.042-16.031,18.839
	c-8.312,38.595-0.864,55.224,4.967,68.229c4.268,9.394,2.492,5.385,5.171,12.917c0.979,2.747,1.836,5.332,2.438,7.703
	c-0.649-0.163-1.349-0.271-1.944-0.323c-3.509-0.324-7.609,1.081-10.47,3.13c-3.078,2.214-5.562,5.67-6.963,9.502
	c-1.243,3.563-1.082,6.964-1.026,10.688c0.379,17.324,0.27,34.436-0.38,48.363c-0.647,13.871-1.778,24.236-3.291,28.121
	c-1.62,4.049-4.21,10.039-9.123,14.197c-4.75,4.049-12.091,6.476-23.748,3.992c-10.204-2.212-17.111-5.344-21.646-10.096
	c-4.589-4.692-7.125-11.389-8.744-20.673c-1.134-6.804-2.753-18.678-4.267-30.443C178.589,393.718,176.97,378.982,176.539,373.745
	L176.539,373.745z M303.227,382.221c-17.758-3.671-19.541-5.881-25.264-13.169c-2.104-2.646-4.208-5.075-6.586-7.448
	c-0.753-0.757-1.51-0.918-2.104-0.973c-1.295-0.105-3.131,0.594-4.266,1.405c-1.512,1.078-2.811,2.914-3.562,4.965
	c-0.703,2.104-0.973,4.695,0.379,6.586c6.639,9.229,14.792,13.116,22.4,14.413c7.719,1.349,15.006,0,19.381-1.081
	c2.155-0.542,4.642-1.567,6.26-2.701C308.571,383.57,306.41,382.869,303.227,382.221L303.227,382.221z M308.354,348.43
	c1.457-1.239,2.809-2.538,4.104-3.938c6.747-7.396,11.281-17.111,12.308-27.96c0.379-3.889,0.32-7.882-0.27-11.93
	c-2.268-16.248-1.405-30.877-0.918-38.487c0.107-1.996,0.217-3.509,0.161-4.696c0.055-0.376,1.297-49.228-26.505-76.541
	c25.103-8.258,106.23-28.068,101.809,61.103c-0.648,13.008-10.962,66.18-26.616,103.264c-4.907,11.659-10.36,21.645-16.139,28.066
	c-4.808,5.344-9.715,7.937-14.465,6.207c-2.589-0.916-5.399-3.075-8.366-6.639C322.874,364.084,312.941,353.288,308.354,348.43
	L308.354,348.43z M209.194,175.213c-25.424,11.227-41.402,31.576-50.146,47.554c-3.184,5.668-5.397,10.905-6.802,14.899
	c-1.619,4.534-2.213,8.096-1.941,9.661c0,0.163,0.051,0.326,0.051,0.486c-0.217,6.638,0.594,12.089,1.512,17.811
	c0.647,4.427,1.35,9.015,1.565,14.413c0.162,5.126-0.487,10.525-1.188,16.138c-1.728,14.307-3.562,29.526,6.046,45.288
	c-0.163,0.218-0.325,0.434-0.486,0.595c-0.378,0.484-0.756,0.975-1.134,1.404c-16.572-26.072-28.662-54.735-35.571-79.833
	c-7.987-28.878-9.23-52.415-2.644-60.891c11.388-14.518,25.315-22.453,39.189-26.503C177.347,170.57,196.995,172.73,209.194,175.213
	L209.194,175.213z M314.398,261.361c0,1.404-0.108,2.807-0.162,4.211c-0.485,7.826-1.403,22.994,1.024,40.322
	c0.484,3.345,0.539,6.64,0.218,9.77c-0.812,8.746-4.479,16.572-9.933,22.509c-5.344,5.885-12.415,9.878-20.19,10.959
	c-1.403,0.218-2.86,0.271-4.265,0.324c-0.706-2.857-1.692-5.818-2.815-8.914c-1.551-4.266-1.98-6-5.336-13.379
	c-5.291-11.769-12.035-26.774-4.318-62.454c1.457-6.908,5.129-10.473,9.607-11.877c3.4-1.078,7.396-1.078,11.496-0.484
	c4.318,0.647,8.693,2.049,12.635,3.615C309.166,258.771,314.345,261.146,314.398,261.361L314.398,261.361z M286.706,257.477
	c-3.438-0.738-8.126-0.103-11.226,1.565c-1.78,1.024-2.752,2.373-2.594,3.832l0,0l0,0l0,0l0,0c0.162,1.134,1.299,2.753,3.024,3.938
	c1.616,1.084,3.83,1.892,6.207,1.564l0,0l0,0h0.053l0,0c2.32-0.32,4.373-1.673,5.829-3.184c1.41-1.514,2.287-3.139,2.212-4.545
	C290.139,259.251,289.111,258.077,286.706,257.477L286.706,257.477z M159.696,250.999c21.375-2.646,29.633,3.185,31.09,12.308
	c2.593,16.301-12.199,42.858-19.756,56.408c-2.05,3.614-3.562,6.425-4.263,8.096c-0.811,1.838-1.619,3.562-2.482,5.073
	c-5.615-11.875-4.158-24.073-2.754-35.625c0.702-5.991,1.403-11.819,1.243-17.487c-0.217-5.883-0.972-10.799-1.674-15.494
	C160.398,259.904,159.75,255.694,159.696,250.999L159.696,250.999z M157.052,359.225c0.702,0.217,1.513,0.436,2.321,0.702
	c3.239,0.916,8.367,2.32,7.828,13.442c-0.432,0.429-1.836,0.861-3.941,1.242c-3.293,0.7-7.665,0.81-12.308,0.592
	c-8.096-0.484-16.732-2.214-22.24-4.748c-5.668-2.648-10.418-5.831-13.331-8.64C127.542,364.082,146.019,367.557,157.052,359.225
	L157.052,359.225z M168.386,257.477L168.386,257.477L168.386,257.477c-0.163,0.972,0.647,2.646,1.997,4.047
	c1.634,1.701,3.529,2.737,5.54,2.963c1.563,0.177,3.194-0.139,4.824-1.018c1.919-1.066,3.326-2.513,3.351-3.97
	c0.019-0.996-0.61-1.997-2.163-2.886c-1.296-0.7-3.129-1.296-5.183-1.62c-2.05-0.268-3.995-0.215-5.452,0.163
	C169.63,255.533,168.549,256.343,168.386,257.477L168.386,257.477z M151.44,352.586c-2.16,2.052-9.448,5.237-33.901,0.163
	c-4.75-0.973-8.096-0.757-10.254,0.269c-2.808,1.354-4.047,3.563-3.833,6.479c0.109,1.781,0.92,3.614,2.269,5.507
	c3.13,4.316,10.309,9.823,19.107,13.929c6.531,3.021,16.517,5.073,25.64,5.61c5.344,0.271,10.473,0.055,14.628-0.753
	c1.025-0.218,2.052-0.486,2.97-0.757c0.754,6.854,1.89,16.462,3.13,26.179c1.513,12.2,3.186,24.292,4.317,30.877
	c1.944,11.173,5.183,19.379,11.175,25.586c5.991,6.206,14.358,10.146,26.45,12.737c15.112,3.24,25.047-0.321,31.739-5.938
	c6.585-5.56,9.715-12.955,11.714-17.923c1.997-4.911,3.292-16.409,3.995-31.144c0.486-10.741,0.702-23.429,0.592-36.602
	c6.803,6.154,14.303,9.179,21.43,10.418c9.445,1.619,18.084,0.057,23.268-1.239c3.777-0.973,8.473-3.08,11.227-5.668
	c1.619-1.516,2.699-3.292,3.022-5.346c0.323-2.375-0.378-4.693-2.592-6.746c-2.105-1.999-5.991-3.775-12.47-5.128
	c-14.358-2.967-15.652-4.585-19.752-9.822c-1.084-1.349-2.162-2.646-3.293-3.889c0.051-0.216,0.051-0.43,0.051-0.646
	c1.564-0.056,3.08-0.162,4.59-0.378c4.908-0.702,9.607-2.271,13.928-4.587c3.883,4.103,14.305,15.383,25.689,29.094
	c4.051,4.909,8.262,7.936,12.472,9.447c8.903,3.181,17.058-0.544,24.505-8.745c6.479-7.233,12.415-18.084,17.762-30.718
	c16.085-38.105,26.663-93.003,27.364-106.443c5.508-110.548-102.397-74.868-119.562-68.5c-10.201-6.962-23.375-11.283-40.432-11.01
	c-8.26,0.108-15.978,1.134-23.049,2.861c-3.401-0.918-8.207-2.267-8.475-2.375c-0.648-0.163-1.403-0.326-2.376-0.539
	c-12.685-2.967-35.897-6.313-59.431,0.486c-15.544,4.478-31.145,13.385-43.938,29.686c-8.421,10.796-7.719,37.462,1.025,69.091
	C119.644,293.318,133.032,324.625,151.44,352.586L151.44,352.586z"/>
<rect y="92.12" fill="none" width="512" height="120.047"/>
<text transform="matrix(1 0 0 1 58.1084 133.6465)" fill="#FFFFFF" font-family="'Arial-Black'" font-size="58" letter-spacing="2">PostgreSQL</text>
</svg>
